<svg width="88" height="88" viewBox="0 0 88 88" fill="none" xmlns="http://www.w3.org/2000/svg">
<g clip-path="url(#clip0)">
<rect width="88" height="88" rx="20" fill="url(#paint0_linear)"/>
<mask id="mask0" mask-type="alpha" maskUnits="userSpaceOnUse" x="0" y="0" width="512" height="512">
<rect width="512" height="512" fill="#C4C4C4"/>
</mask>
<g mask="url(#mask0)">
<path fill-rule="evenodd" clip-rule="evenodd" d="M44.043 55.2578C54.3659 55.2578 62.7344 46.8894 62.7344 36.5664C62.7344 26.2434 54.3659 17.875 44.043 17.875C33.72 17.875 25.3516 26.2434 25.3516 36.5664C25.3516 46.8894 33.72 55.2578 44.043 55.2578ZM44.0433 50.585C51.7855 50.585 58.0618 44.3086 58.0618 36.5664C58.0618 28.8242 51.7855 22.5479 44.0433 22.5479C36.301 22.5479 30.0247 28.8242 30.0247 36.5664C30.0247 44.3086 36.301 50.585 44.0433 50.585Z" fill="#FFFAF5"/>
<rect x="34.3232" y="63.2328" width="19.9375" height="6.97813" rx="3.48907" fill="#FFFAF5"/>
<ellipse cx="44.2922" cy="36.7249" rx="9.425" ry="9.42501" fill="#FFFAF5"/>
</g>
</g>
<defs>
<linearGradient id="paint0_linear" x1="44" y1="1.3113e-06" x2="44" y2="88" gradientUnits="userSpaceOnUse">
<stop stop-color="#9D85F8"/>
<stop offset="1" stop-color="#5A5EC7"/>
</linearGradient>
<clipPath id="clip0">
<rect width="88" height="88" rx="20" fill="white"/>
</clipPath>
</defs>
</svg>
