<svg width="61" height="46" viewBox="0 0 61 46" fill="none" xmlns="http://www.w3.org/2000/svg">
<path fill-rule="evenodd" clip-rule="evenodd" d="M8.25548 0.0351562H52.4234C56.9834 0.0351562 60.6788 3.73137 60.6788 8.29063V29.756C60.6788 34.3152 56.9826 38.0114 52.4234 38.0114H18.8333L11.3324 45.5123C10.2927 46.552 8.51395 45.816 8.51395 44.3448V38.0114H8.25548C3.69622 38.0114 0 34.3152 0 29.756V8.29063C0 3.73137 3.69622 0.0351562 8.25548 0.0351562ZM18.5001 24C20.9854 24 23.0001 21.9853 23.0001 19.5C23.0001 17.0147 20.9854 15 18.5001 15C16.0148 15 14.0001 17.0147 14.0001 19.5C14.0001 21.9853 16.0148 24 18.5001 24ZM35.0001 19.5C35.0001 21.9853 32.9854 24 30.5001 24C28.0148 24 26.0001 21.9853 26.0001 19.5C26.0001 17.0147 28.0148 15 30.5001 15C32.9854 15 35.0001 17.0147 35.0001 19.5ZM42.5001 24C44.9854 24 47.0001 21.9853 47.0001 19.5C47.0001 17.0147 44.9854 15 42.5001 15C40.0148 15 38.0001 17.0147 38.0001 19.5C38.0001 21.9853 40.0148 24 42.5001 24Z" fill="#7D8BF7"/>
</svg>
