<svg id="svg4" fill="none" viewBox="0 0 26 26" height="26" width="26" xmlns="http://www.w3.org/2000/svg">
    <defs id="defs8"></defs>
    <path style="fill:#7460df" id="path2" d="M 23.2143,0 H 2.78571 C 1.24777,0 0,1.24777 0,2.78571 V 23.2143 C 0,24.7522 1.24777,26 2.78571,26 H 23.2143 C 24.7522,26 26,24.7522 26,23.2143 V 2.78571 C 26,1.24777 24.7522,0 23.2143,0 Z"></path>
    <path style="clip-rule:nonzero;fill:#ffffff;fill-opacity:1;fill-rule:nonzero;stroke:none;stroke-width:0.04294982" d="m 12.934414,2.2796623 c -2.9385467,0 -3.3069762,0.012415 -4.4610846,0.065096 C 7.3215691,2.3972709 6.5350505,2.5801433 5.8468468,2.8475729 5.1353226,3.1240621 4.5320117,3.4941689 3.9303787,4.0956341 3.3289134,4.6970994 2.9589746,5.300578 2.6824851,6.0121022 2.4150554,6.7003059 2.2320155,7.4868245 2.1795027,8.6385845 c -0.052681,1.1539407 -0.065096,1.5225365 -0.065096,4.4610785 0,2.938372 0.012415,3.3068 0.065096,4.460909 0.052513,1.15176 0.2355527,1.938278 0.5029824,2.626482 0.2764895,0.711525 0.6464283,1.314835 1.2478936,1.916468 0.601633,0.601466 1.2049439,0.971404 1.9164681,1.247894 0.6882037,0.267597 1.4747223,0.45047 2.6264826,0.502982 1.1541084,0.05269 1.5225379,0.06509 4.4610846,0.06509 2.938539,0 3.306968,-0.01242 4.46091,-0.06509 1.151759,-0.05251 1.938278,-0.235385 2.626481,-0.502982 0.711525,-0.27649 1.315003,-0.646428 1.916468,-1.247894 0.601466,-0.601633 0.971573,-1.204943 1.248062,-1.916468 0.26743,-0.688204 0.450302,-1.474722 0.502815,-2.626482 0.05269,-1.154109 0.06509,-1.522537 0.06509,-4.460909 0,-2.938542 -0.01242,-3.3071378 -0.06509,-4.4610785 C 23.636637,7.4868245 23.453765,6.7003059 23.186335,6.0121022 22.909846,5.300578 22.539739,4.6970994 21.938273,4.0956341 21.336808,3.4941689 20.73333,3.1240621 20.021805,2.8475729 19.333602,2.5801433 18.547083,2.3972709 17.395324,2.3447581 16.241382,2.2920774 15.872953,2.2796623 12.934414,2.2796623 Z m 0,1.949519 c 2.889047,0 3.231135,0.011068 4.372158,0.063082 1.054955,0.048151 1.627731,0.2243122 2.009078,0.3724556 0.504997,0.196294 0.865539,0.4308403 1.244035,0.8095033 0.378662,0.3784955 0.61321,0.739039 0.809503,1.244035 0.148144,0.3813476 0.324305,0.9541234 0.372456,2.0090783 0.052,1.1410224 0.06308,1.4831095 0.06308,4.3723265 0,2.888879 -0.01108,3.231135 -0.06308,4.372159 -0.04815,1.054786 -0.224312,1.62773 -0.372456,2.009078 -0.196293,0.504996 -0.430841,0.865371 -0.809503,1.244035 -0.378496,0.378662 -0.739038,0.61304 -1.244035,0.809335 -0.381347,0.148311 -0.954123,0.324472 -2.009078,0.372624 -1.140855,0.052 -1.482944,0.06308 -4.372158,0.06308 -2.88939,0 -3.2314792,-0.01108 -4.3723336,-0.06308 C 7.5072935,21.858741 6.9343498,21.68258 6.5530022,21.534269 6.0480062,21.337974 5.6876303,21.103596 5.3089673,20.724934 4.9303042,20.34627 4.6959257,19.985895 4.4996316,19.480899 4.3514883,19.099551 4.1751591,18.526607 4.1270083,17.471821 c -0.052009,-1.141024 -0.063083,-1.48328 -0.063083,-4.372158 0,-2.889217 0.011068,-3.2313051 0.063082,-4.3723265 C 4.1751591,7.672381 4.3514883,7.0996052 4.4996316,6.7182576 4.6959257,6.2132616 4.9303042,5.8527181 5.3089673,5.4742227 5.6876303,5.0955596 6.0480062,4.8610133 6.5530022,4.6647193 6.9343498,4.5165759 7.5072935,4.3404145 8.5620804,4.2922637 9.7031036,4.2402545 10.04536,4.229181 12.934414,4.229181" id="path7"></path>
    <path id="path11" d="m 12.934414,16.706274 c -1.99197,0 -3.6067865,-1.614814 -3.6067865,-3.606611 0,-1.991967 1.6148165,-3.6067795 3.6067865,-3.6067795 1.991797,0 3.606611,1.6148125 3.606611,3.6067795 0,1.991797 -1.614814,3.606611 -3.606611,3.606611 z m 0,-9.1629099 c -3.068739,0 -5.5563053,2.4875649 -5.5563053,5.5562989 0,3.068564 2.4875663,5.55613 5.5563053,5.55613 3.068564,0 5.55613,-2.487566 5.55613,-5.55613 0,-3.068734 -2.487566,-5.5562989 -5.55613,-5.5562989" style="fill:#ffffff;fill-opacity:1;fill-rule:nonzero;stroke:none;stroke-width:0.04294982"></path>
    <path id="path13" d="m 20.008552,7.3239171 c 0,0.7170604 -0.581334,1.2983934 -1.298562,1.2983934 -0.717061,0 -1.298393,-0.581333 -1.298393,-1.2983934 0,-0.7172286 0.581332,-1.2983931 1.298393,-1.2983931 0.717228,0 1.298562,0.5811645 1.298562,1.2983931" style="fill:#ffffff;fill-opacity:1;fill-rule:nonzero;stroke:none;stroke-width:0.04294982"></path>
</svg>