<svg width="144" height="48" viewBox="0 0 144 48" fill="none" xmlns="http://www.w3.org/2000/svg">
<path d="M57.98 36.38C56.612 36.38 55.358 36.038 54.218 35.354C53.1033 34.6447 52.204 33.72 51.52 32.58C50.8613 31.4147 50.532 30.1353 50.532 28.742V26.994C50.532 26.8673 50.5953 26.804 50.722 26.804H54.978C55.0793 26.804 55.13 26.8673 55.13 26.994V28.742C55.13 29.578 55.4087 30.3 55.966 30.908C56.5233 31.4907 57.1947 31.782 57.98 31.782C58.7653 31.782 59.4367 31.478 59.994 30.87C60.5513 30.262 60.83 29.5527 60.83 28.742C60.83 27.8047 60.222 26.994 59.006 26.31C58.6007 26.082 57.9673 25.7273 57.106 25.246C56.2447 24.7647 55.434 24.3087 54.674 23.878C53.2807 23.0673 52.242 22.054 51.558 20.838C50.8993 19.5967 50.57 18.2033 50.57 16.658C50.57 15.2393 50.912 13.9727 51.596 12.858C52.28 11.718 53.1793 10.8187 54.294 10.16C55.434 9.50133 56.6627 9.172 57.98 9.172C59.3227 9.172 60.5513 9.514 61.666 10.198C62.806 10.8567 63.7053 11.756 64.364 12.896C65.048 14.0107 65.39 15.2647 65.39 16.658V19.774C65.39 19.8753 65.3393 19.926 65.238 19.926H60.982C60.8807 19.926 60.83 19.8753 60.83 19.774L60.792 16.658C60.792 15.7713 60.5133 15.0493 59.956 14.492C59.3987 13.9347 58.74 13.656 57.98 13.656C57.1947 13.656 56.5233 13.96 55.966 14.568C55.4087 15.1507 55.13 15.8473 55.13 16.658C55.13 17.494 55.3073 18.1907 55.662 18.748C56.0167 19.3053 56.6627 19.8373 57.6 20.344C57.7267 20.42 57.9673 20.5593 58.322 20.762C58.702 20.9393 59.1073 21.1547 59.538 21.408C59.9687 21.636 60.3487 21.8387 60.678 22.016C61.0327 22.1933 61.248 22.3073 61.324 22.358C62.5907 23.0673 63.5913 23.9413 64.326 24.98C65.0607 25.9933 65.428 27.2473 65.428 28.742C65.428 30.186 65.086 31.4907 64.402 32.656C63.7433 33.796 62.844 34.708 61.704 35.392C60.5893 36.0507 59.348 36.38 57.98 36.38ZM68.2608 36C68.1341 36 68.0708 35.9367 68.0708 35.81L68.1088 9.704C68.1088 9.60267 68.1594 9.552 68.2608 9.552H72.5168C72.6181 9.552 72.6688 9.60267 72.6688 9.704L72.7068 35.81C72.7068 35.9367 72.6561 36 72.5548 36H68.2608ZM76.2013 36C76.1 36 76.0493 35.9367 76.0493 35.81L76.1253 9.704C76.1253 9.60267 76.176 9.552 76.2773 9.552H80.9133C81.0146 9.552 81.1033 9.60267 81.1793 9.704L84.6373 14.72L88.0953 9.704C88.1713 9.60267 88.26 9.552 88.3613 9.552H93.0353C93.1366 9.552 93.1873 9.60267 93.1873 9.704L93.2633 35.81C93.2633 35.9367 93.2126 36 93.1113 36H88.8173C88.716 36 88.6653 35.9367 88.6653 35.81L88.6273 16.43L84.6373 22.206L80.6853 16.43L80.6473 35.81C80.6473 35.9367 80.5966 36 80.4953 36H76.2013ZM96.6495 36C96.5228 36 96.4595 35.9367 96.4595 35.81L96.5355 9.704C96.5355 9.60267 96.5861 9.552 96.6875 9.552H103.983C106.314 9.552 108.151 10.2613 109.493 11.68C110.861 13.0987 111.545 15.024 111.545 17.456C111.545 19.2547 111.191 20.8127 110.481 22.13C109.772 23.4473 108.847 24.4607 107.707 25.17C106.567 25.8793 105.326 26.234 103.983 26.234H101.095V35.81C101.095 35.9367 101.032 36 100.905 36H96.6495ZM101.095 21.636H103.983C104.794 21.636 105.491 21.256 106.073 20.496C106.681 19.7107 106.985 18.6973 106.985 17.456C106.985 16.468 106.719 15.6573 106.187 15.024C105.655 14.3907 104.921 14.074 103.983 14.074L101.095 14.112V21.636ZM114.276 36C114.174 36 114.124 35.9367 114.124 35.81L114.162 9.742C114.162 9.61533 114.225 9.552 114.352 9.552H118.57C118.696 9.552 118.76 9.61533 118.76 9.742L118.722 31.326H126.55C126.676 31.326 126.74 31.3893 126.74 31.516V35.81C126.74 35.9367 126.676 36 126.55 36H114.276ZM129.379 36C129.278 36 129.227 35.9367 129.227 35.81L129.265 9.704C129.265 9.60267 129.316 9.552 129.417 9.552H141.615C141.716 9.552 141.767 9.61533 141.767 9.742V13.998C141.767 14.0993 141.716 14.15 141.615 14.15H133.825V20.078H141.615C141.716 20.078 141.767 20.1287 141.767 20.23L141.805 24.524C141.805 24.6253 141.754 24.676 141.653 24.676H133.825V31.326H141.653C141.754 31.326 141.805 31.3893 141.805 31.516V35.848C141.805 35.9493 141.754 36 141.653 36H129.379Z" fill="#7D8BF7"/>
<path fill-rule="evenodd" clip-rule="evenodd" d="M17 34.2862C26.3888 34.2862 34 26.611 34 17.1431C34 7.67522 26.3888 0 17 0C7.61116 0 0 7.67522 0 17.1431C0 26.611 7.61116 34.2862 17 34.2862ZM16.9999 30.0037C24.0415 30.0037 29.7499 24.2473 29.7499 17.1464C29.7499 10.0455 24.0415 4.28906 16.9999 4.28906C9.95824 4.28906 4.24987 10.0455 4.24987 17.1464C4.24987 24.2473 9.95824 30.0037 16.9999 30.0037Z" fill="#7D8BF7"/>
<rect x="8.16028" y="41.5996" width="18.1333" height="6.40008" rx="3.20004" fill="#7D8BF7"/>
<ellipse cx="17.2287" cy="17.2917" rx="8.57211" ry="8.64429" fill="#7D8BF7"/>
</svg>
