<svg width="26" height="26" viewBox="0 0 26 26" fill="none" xmlns="http://www.w3.org/2000/svg">
    <path d="M23.2143 0H2.78571C1.24777 0 0 1.24777 0 2.78571V23.2143C0 24.7522 1.24777 26 2.78571 26H23.2143C24.7522 26 26 24.7522 26 23.2143V2.78571C26 1.24777 24.7522 0 23.2143 0ZM20.3763 9.21607C20.3879 9.37857 20.3879 9.54688 20.3879 9.70938C20.3879 14.7411 16.5576 20.5388 9.55848 20.5388C7.39955 20.5388 5.39732 19.9121 3.71429 18.8326C4.02187 18.8674 4.31786 18.879 4.63125 18.879C6.41295 18.879 8.04955 18.2754 9.35536 17.254C7.68393 17.2192 6.27946 16.1223 5.79777 14.6134C6.38393 14.7004 6.91205 14.7004 7.51562 14.5437C5.77455 14.1897 4.46875 12.6576 4.46875 10.8062V10.7598C4.97366 11.0442 5.56562 11.2183 6.18661 11.2415C5.66453 10.8943 5.23655 10.4231 4.94085 9.87022C4.64515 9.31731 4.49094 8.69979 4.49196 8.07277C4.49196 7.36473 4.67768 6.71473 5.00848 6.15179C6.88304 8.46161 9.69777 9.97054 12.8549 10.133C12.3152 7.55045 14.2478 5.45536 16.5692 5.45536C17.6661 5.45536 18.6527 5.91384 19.3491 6.6567C20.208 6.4942 21.0321 6.175 21.7634 5.73973C21.479 6.62187 20.8813 7.36473 20.092 7.83482C20.858 7.75357 21.6009 7.53884 22.2857 7.24286C21.7692 8.00313 21.1192 8.67634 20.3763 9.21607Z" fill="#7460DF"></path>
</svg>